<svg xmlns="http://www.w3.org/2000/svg" xmlns:xlink="http://www.w3.org/1999/xlink" version="1.1" width="51.701149437887125" height="41.85057471894356" style="" xml:space="preserve" data-ember-extension="1"><rect id="backgroundrect" width="100%" height="100%" x="0" y="0" fill="none" stroke="none" class="selected" style=""/> <g class="currentLayer" style=""><title>Layer 1</title><g id="svg_1" class=""><g id="svg_2">
	<g id="svg_3">
		<path d="M25.412543607666443,8.607280655829236 L7.285674352496217,23.55096376742236 c0,0.02109020929038525 -0.005300157308578492,0.05211821353435522 -0.01590047192573549,0.09440905205905444 c-0.010379474729299553,0.04195957869291309 -0.01590047192573549,0.07243548321723946 -0.01590047192573549,0.09407779222726825 v15.13205953593552 c0,0.5463578825592996 0.19974967856705203,1.0198386021256447 0.5991386157572267,1.4185650196522475 c0.3992785172462466,0.39894725741446035 0.8720967171490196,0.599690715476871 1.4185650196522475,0.599690715476871 h12.105338452905416 V28.783764910204326 h8.07136664135754 v12.106442652344704 h12.105228032961488 c0.5463578825592996,0 1.0198386021256447,-0.2003017782866955 1.4185650196522475,-0.6001323952525854 c0.3993889371901754,-0.39828473775088813 0.5998011354207997,-0.8720967171490196 0.5998011354207997,-1.4185650196522475 V23.73945061170869 c0,-0.08391915738582613 -0.011483674168586732,-0.14730020520091058 -0.031800943851470954,-0.18848684428632276 L25.412543607666443,8.607280655829236 z" data-original="#000000" class="active-path" data-old_color="#ffa400" fill="#ffa400" id="svg_4"/>
		<path d="M50.474889540999484,20.146054376436396 L43.57121380668814,14.408413250012323 V1.5459252415876819 c0,-0.29404831068217757 -0.09451947200298315,-0.5358679878860712 -0.28422093567252166,-0.7251277717798948 c-0.18815558445453645,-0.18903894400596627 -0.42997526165843036,-0.2835584160089493 -0.7246860920041803,-0.2835584160089493 h-6.052779646396638 c-0.2943795705139639,0 -0.5360888277739285,0.09451947200298315 -0.7254590316116812,0.2835584160089493 c-0.18892852406203753,0.18925978389382375 -0.28333757612109184,0.4311898810416463 -0.28333757612109184,0.7251277717798948 v6.147409538343549 l-7.692074133962394,-6.4314096341282125 c-0.6717949388623239,-0.5464683025032282 -1.470572813242674,-0.8196472437828781 -2.3954502635896207,-0.8196472437828781 c-0.9247670304030182,0 -1.7234344848394394,0.27317894127965003 -2.3958919433653354,0.8196472437828781 L0.3497559945576887,20.146054376436396 c-0.21012915329635143,0.16783831477165229 -0.3252971548140049,0.3937575200498105 -0.3467186239361764,0.6775367759466169 c-0.021311049178242693,0.2835584160089493 0.05211821353435522,0.5312303502410648 0.22050862802565097,0.7412490835934883 l1.9545434274822475,2.332952575325966 c0.16839041449129596,0.18903894400596627 0.38878862257301816,0.3046486252993347 0.6620779837965968,0.346939463824034 c0.25230957187712205,0.02120062923431397 0.5046191437542437,-0.05255989331007007 0.7569287156313661,-0.2206190479695797 L25.412543607666443,5.833310824451971 l21.815668321996927,18.190691982761027 c0.16850083443522468,0.14663768553733839 0.38878862257301816,0.21984610836207877 0.6620779837965968,0.21984610836207877 h0.09474031189084056 c0.2728476814478638,-0.041517898917198225 0.4928042097538712,-0.15790051981806763 0.6620779837965968,-0.3464977840483188 l1.9547642673701047,-2.3326213154941797 c0.1680591546595097,-0.2104604131281377 0.241709257259965,-0.4576906675845384 0.21984610836207877,-0.7415803434252739 C50.80018669581348,20.540143156317995 50.684577014520116,20.314223951039835 50.474889540999484,20.146054376436396 z" data-original="#000000" class="active-path" data-old_color="#ffa400" fill="#ffa400" id="svg_5"/>
	</g>
</g></g></g></svg>